<svg width="465" height="156" viewBox="0 0 465 156" fill="none" xmlns="http://www.w3.org/2000/svg">
<path d="M23.472 87.136C19.92 87.136 17.136 86.272 15.072 84.544C12.96 82.816 11.952 80.368 11.952 77.2C11.952 74.08 12.96 71.632 15.072 69.904C17.136 68.176 19.92 67.264 23.472 67.264C28.032 67.264 31.392 68.992 33.6 72.352L42.048 68.032C41.088 66.544 39.84 65.248 38.4 64.096C36.912 62.944 35.328 62.032 33.648 61.312C31.968 60.592 30.24 60.064 28.512 59.776C26.784 59.488 25.152 59.296 23.616 59.296C20.4 59.296 17.472 59.728 14.784 60.496C12.096 61.312 9.792 62.512 7.92 64.048C6 65.584 4.56 67.504 3.552 69.712C2.496 71.968 2.016 74.464 2.016 77.2C2.016 79.984 2.496 82.48 3.504 84.688C4.512 86.944 5.952 88.864 7.872 90.4C9.744 91.936 12 93.136 14.64 93.904C17.232 94.72 20.112 95.104 23.232 95.104C25.392 95.104 27.456 94.912 29.472 94.432C31.44 94 33.216 93.376 34.848 92.608C36.48 91.84 37.92 90.88 39.168 89.824C40.416 88.768 41.424 87.568 42.192 86.32L33.792 82C31.536 85.456 28.08 87.136 23.472 87.136ZM67.6609 95.104C70.9249 95.104 73.9009 94.72 76.6369 93.904C79.3249 93.136 81.6769 91.936 83.5969 90.4C85.5169 88.864 86.9569 86.992 88.0129 84.736C89.0689 82.48 89.5969 79.984 89.5969 77.2C89.5969 74.464 89.0689 71.968 88.0129 69.712C86.9569 67.456 85.5169 65.536 83.5969 64C81.6769 62.464 79.3249 61.312 76.6369 60.496C73.9009 59.728 70.9249 59.296 67.6609 59.296C64.3969 59.296 61.3729 59.728 58.6849 60.496C55.9489 61.312 53.6449 62.464 51.7249 64C49.8049 65.536 48.3169 67.456 47.3089 69.712C46.2529 71.968 45.7729 74.464 45.7729 77.2C45.7729 79.984 46.2529 82.48 47.3089 84.736C48.3169 86.992 49.8049 88.864 51.7249 90.4C53.6449 91.936 55.9489 93.136 58.6849 93.904C61.3729 94.72 64.3969 95.104 67.6609 95.104ZM67.6609 87.136C63.9169 87.136 60.9889 86.272 58.8769 84.544C56.7649 82.816 55.7089 80.368 55.7089 77.2C55.7089 74.08 56.7649 71.632 58.9249 69.904C61.0369 68.176 63.9649 67.264 67.6609 67.264C71.3569 67.264 74.2849 68.176 76.3969 69.904C78.5089 71.632 79.6129 74.08 79.6129 77.2C79.6129 80.368 78.5089 82.816 76.3969 84.544C74.2849 86.272 71.3569 87.136 67.6609 87.136ZM132.56 60.4L119.84 76.528L107.216 60.4H96.5122V94H105.968V72.544L119.36 88.96H119.84L133.232 72.544V94H142.976V60.4H132.56ZM161.592 94V60.4H151.8V94H161.592ZM200.767 60.4V80.944L180.847 60.4H170.479V94H179.935V71.92L201.631 94H210.223V60.4H200.767ZM258.664 74.56H238.456V81.424H249.592V84.448C247.384 86.464 244.168 87.424 239.848 87.424C235.768 87.424 232.6 86.56 230.392 84.784C228.184 83.056 227.08 80.512 227.08 77.2C227.08 73.936 228.136 71.44 230.344 69.664C232.504 67.936 235.624 67.024 239.704 67.024C241.912 67.024 243.832 67.36 245.464 67.936C247.096 68.56 248.68 69.52 250.12 70.768L257.272 65.488C256.12 64.432 254.632 63.424 252.856 62.416C251.08 61.456 249.016 60.688 246.664 60.112C244.312 59.584 241.912 59.296 239.464 59.296C236.056 59.296 232.984 59.728 230.2 60.496C227.416 61.312 225.064 62.464 223.144 64C221.176 65.536 219.688 67.456 218.68 69.664C217.624 71.92 217.144 74.416 217.144 77.2C217.144 79.984 217.624 82.528 218.68 84.736C219.688 86.992 221.176 88.864 223.144 90.4C225.064 91.936 227.416 93.136 230.2 93.904C232.984 94.72 236.056 95.104 239.464 95.104C243.784 95.104 247.624 94.48 250.936 93.136C254.2 91.792 256.792 89.968 258.664 87.664V74.56ZM297.584 72.688C293.936 72.4 291.584 72.16 290.576 71.92C289.52 71.68 288.8 71.392 288.368 71.008C287.888 70.672 287.696 70.24 287.696 69.664C287.696 68.704 288.464 67.984 290 67.456C291.536 66.928 293.648 66.64 296.384 66.64C301.904 66.736 306.416 67.984 309.872 70.384L314.816 64.288C312.512 62.704 309.776 61.456 306.608 60.592C303.392 59.728 299.984 59.296 296.384 59.296C293.744 59.296 291.152 59.584 288.608 60.16C286.016 60.736 283.904 61.6 282.272 62.752C280.592 63.952 279.44 65.2 278.864 66.544C278.24 67.888 277.952 69.184 277.952 70.432C277.952 73.456 279.44 75.808 282.464 77.536C285.488 79.264 290.336 80.416 297.008 80.992C300.56 81.28 303.008 81.664 304.448 82.144C305.888 82.624 306.608 83.392 306.608 84.448C306.608 86.656 303.728 87.712 297.968 87.712C294.704 87.712 291.68 87.28 288.896 86.368C286.112 85.456 283.712 84.16 281.744 82.48L276.608 88.528C278.528 90.064 280.736 91.36 283.328 92.416C285.872 93.472 288.416 94.192 290.96 94.576C293.456 94.96 295.76 95.104 297.776 95.104C300.704 95.104 303.344 94.864 305.696 94.288C308.048 93.712 310.016 92.944 311.6 91.888C313.136 90.88 314.336 89.632 315.152 88.192C315.92 86.752 316.352 85.216 316.352 83.488C316.352 80.32 314.96 77.872 312.176 76.144C309.392 74.416 304.496 73.264 297.584 72.688ZM342.787 95.104C346.051 95.104 349.027 94.72 351.763 93.904C354.451 93.136 356.803 91.936 358.723 90.4C360.643 88.864 362.083 86.992 363.139 84.736C364.195 82.48 364.723 79.984 364.723 77.2C364.723 74.464 364.195 71.968 363.139 69.712C362.083 67.456 360.643 65.536 358.723 64C356.803 62.464 354.451 61.312 351.763 60.496C349.027 59.728 346.051 59.296 342.787 59.296C339.523 59.296 336.499 59.728 333.811 60.496C331.075 61.312 328.771 62.464 326.851 64C324.931 65.536 323.443 67.456 322.435 69.712C321.379 71.968 320.899 74.464 320.899 77.2C320.899 79.984 321.379 82.48 322.435 84.736C323.443 86.992 324.931 88.864 326.851 90.4C328.771 91.936 331.075 93.136 333.811 93.904C336.499 94.72 339.523 95.104 342.787 95.104ZM342.787 87.136C339.043 87.136 336.115 86.272 334.003 84.544C331.891 82.816 330.835 80.368 330.835 77.2C330.835 74.08 331.891 71.632 334.051 69.904C336.163 68.176 339.091 67.264 342.787 67.264C346.483 67.264 349.411 68.176 351.523 69.904C353.635 71.632 354.739 74.08 354.739 77.2C354.739 80.368 353.635 82.816 351.523 84.544C349.411 86.272 346.483 87.136 342.787 87.136ZM391.607 95.104C394.871 95.104 397.847 94.72 400.583 93.904C403.271 93.136 405.623 91.936 407.543 90.4C409.463 88.864 410.903 86.992 411.959 84.736C413.015 82.48 413.543 79.984 413.543 77.2C413.543 74.464 413.015 71.968 411.959 69.712C410.903 67.456 409.463 65.536 407.543 64C405.623 62.464 403.271 61.312 400.583 60.496C397.847 59.728 394.871 59.296 391.607 59.296C388.343 59.296 385.319 59.728 382.631 60.496C379.895 61.312 377.591 62.464 375.671 64C373.751 65.536 372.263 67.456 371.255 69.712C370.199 71.968 369.719 74.464 369.719 77.2C369.719 79.984 370.199 82.48 371.255 84.736C372.263 86.992 373.751 88.864 375.671 90.4C377.591 91.936 379.895 93.136 382.631 93.904C385.319 94.72 388.343 95.104 391.607 95.104ZM391.607 87.136C387.863 87.136 384.935 86.272 382.823 84.544C380.711 82.816 379.655 80.368 379.655 77.2C379.655 74.08 380.711 71.632 382.871 69.904C384.983 68.176 387.911 67.264 391.607 67.264C395.303 67.264 398.231 68.176 400.343 69.904C402.455 71.632 403.559 74.08 403.559 77.2C403.559 80.368 402.455 82.816 400.343 84.544C398.231 86.272 395.303 87.136 391.607 87.136ZM450.746 60.4V80.944L430.826 60.4H420.458V94H429.914V71.92L451.61 94H460.202V60.4H450.746Z" fill="white"/>
<path d="M15.072 139.544L15.714 138.777L15.7052 138.77L15.072 139.544ZM15.072 124.904L15.7053 125.678L15.7139 125.671L15.072 124.904ZM33.6 127.352L32.7643 127.901L33.2568 128.651L34.0553 128.242L33.6 127.352ZM42.048 123.032L42.5033 123.922L43.4877 123.419L42.8883 122.49L42.048 123.032ZM38.4 119.096L39.0247 118.315L39.0185 118.31L39.0122 118.305L38.4 119.096ZM33.648 116.312L34.0419 115.393L34.0419 115.393L33.648 116.312ZM28.512 114.776L28.6764 113.79V113.79L28.512 114.776ZM14.784 115.496L14.5093 114.534L14.5014 114.537L14.4935 114.539L14.784 115.496ZM7.92 119.048L8.54474 119.829L8.55432 119.821L7.92 119.048ZM3.552 124.712L4.45773 125.136L4.46169 125.127L3.552 124.712ZM3.504 139.688L4.41704 139.28L4.41369 139.273L3.504 139.688ZM7.872 145.4L8.50637 144.627L8.4967 144.619L7.872 145.4ZM14.64 148.904L14.9403 147.95L14.9298 147.947L14.9193 147.944L14.64 148.904ZM29.472 149.432L29.2576 148.455L29.249 148.457L29.2404 148.459L29.472 149.432ZM34.848 147.608L34.4222 146.703L34.848 147.608ZM42.192 141.32L43.0437 141.844L43.6096 140.925L42.6494 140.431L42.192 141.32ZM33.792 137L34.2494 136.111L33.4475 135.698L32.9546 136.453L33.792 137ZM23.472 141.136C20.0809 141.136 17.5485 140.313 15.7139 138.777L14.4301 140.311C16.7235 142.231 19.7591 143.136 23.472 143.136V141.136ZM15.7052 138.77C13.8728 137.271 12.952 135.135 12.952 132.2H10.952C10.952 135.601 12.0472 138.361 14.4388 140.318L15.7052 138.77ZM12.952 132.2C12.952 129.316 13.871 127.179 15.7052 125.678L14.4388 124.13C12.049 126.085 10.952 128.844 10.952 132.2H12.952ZM15.7139 125.671C17.5559 124.129 20.0933 123.264 23.472 123.264V121.264C19.7467 121.264 16.7161 122.223 14.4301 124.137L15.7139 125.671ZM23.472 123.264C27.7369 123.264 30.7629 124.856 32.7643 127.901L34.4357 126.803C32.0211 123.128 28.3271 121.264 23.472 121.264V123.264ZM34.0553 128.242L42.5033 123.922L41.5927 122.142L33.1447 126.462L34.0553 128.242ZM42.8883 122.49C41.8575 120.892 40.5293 119.519 39.0247 118.315L37.7753 119.877C39.1507 120.977 40.3185 122.196 41.2077 123.574L42.8883 122.49ZM39.0122 118.305C37.4532 117.098 35.7951 116.144 34.0419 115.393L33.2541 117.231C34.8609 117.92 36.3708 118.79 37.7878 119.887L39.0122 118.305ZM34.0419 115.393C32.2974 114.645 30.4924 114.092 28.6764 113.79L28.3476 115.762C29.9876 116.036 31.6386 116.539 33.2541 117.231L34.0419 115.393ZM28.6764 113.79C26.9237 113.497 25.2306 113.296 23.616 113.296V115.296C25.0734 115.296 26.6443 115.479 28.3476 115.762L28.6764 113.79ZM23.616 113.296C20.3088 113.296 17.2882 113.74 14.5093 114.534L15.0587 116.458C17.6558 115.716 20.4912 115.296 23.616 115.296V113.296ZM14.4935 114.539C11.697 115.388 9.27207 116.645 7.28568 118.275L8.55432 119.821C10.3119 118.379 12.495 117.236 15.0745 116.453L14.4935 114.539ZM7.29531 118.267C5.24394 119.908 3.71038 121.957 2.64231 124.297L4.46169 125.127C5.40962 123.051 6.75606 121.26 8.54469 119.829L7.29531 118.267ZM2.64631 124.288C1.51732 126.7 1.016 129.346 1.016 132.2H3.016C3.016 129.582 3.47468 127.236 4.45769 125.136L2.64631 124.288ZM1.016 132.2C1.016 135.099 1.51624 137.742 2.59431 140.103L4.41369 139.273C3.47576 137.218 3.016 134.869 3.016 132.2H1.016ZM2.59099 140.096C3.65968 142.488 5.19482 144.539 7.2473 146.181L8.4967 144.619C6.70918 143.189 5.36433 141.4 4.41701 139.28L2.59099 140.096ZM7.23768 146.173C9.21893 147.799 11.597 149.06 14.3607 149.864L14.9193 147.944C12.403 147.212 10.2691 146.073 8.50632 144.627L7.23768 146.173ZM14.3397 149.858C17.0476 150.71 20.0318 151.104 23.232 151.104V149.104C20.1922 149.104 17.4164 148.73 14.9403 147.95L14.3397 149.858ZM23.232 151.104C25.4513 151.104 27.5955 150.907 29.7036 150.405L29.2404 148.459C27.3165 148.917 25.3327 149.104 23.232 149.104V151.104ZM29.6864 150.409C31.7297 149.96 33.5765 149.312 35.2738 148.513L34.4222 146.703C32.8555 147.44 31.1503 148.04 29.2576 148.455L29.6864 150.409ZM35.2738 148.513C36.9914 147.705 38.5047 146.695 39.8139 145.587L38.5221 144.061C37.3354 145.065 35.9686 145.975 34.4222 146.703L35.2738 148.513ZM39.8139 145.587C41.1443 144.462 42.2212 143.181 43.0437 141.844L41.3403 140.796C40.6268 141.955 39.6877 143.074 38.5221 144.061L39.8139 145.587ZM42.6494 140.431L34.2494 136.111L33.3347 137.889L41.7347 142.209L42.6494 140.431ZM32.9546 136.453C30.9127 139.581 27.7999 141.136 23.472 141.136V143.136C28.3601 143.136 32.1593 141.331 34.6294 137.547L32.9546 136.453ZM76.6369 148.904L76.3621 147.942L76.3511 147.946L76.6369 148.904ZM83.5969 145.4L84.2216 146.181L83.5969 145.4ZM88.0129 139.736L88.9186 140.16L88.0129 139.736ZM88.0129 124.712L88.9186 124.288L88.0129 124.712ZM83.5969 119L82.9722 119.781V119.781L83.5969 119ZM76.6369 115.496L76.9274 114.539L76.9173 114.536L76.9071 114.533L76.6369 115.496ZM58.6849 115.496L58.4101 114.534L58.3991 114.538L58.6849 115.496ZM51.7249 119L52.3496 119.781L52.3496 119.781L51.7249 119ZM47.3089 124.712L48.2146 125.136L48.2183 125.128L48.2219 125.12L47.3089 124.712ZM47.3089 139.736L48.2219 139.328L48.2183 139.32L48.2146 139.312L47.3089 139.736ZM51.7249 145.4L51.1002 146.181L51.7249 145.4ZM58.6849 148.904L58.9754 147.947L58.9653 147.944L58.9551 147.941L58.6849 148.904ZM58.9249 124.904L59.5496 125.685L59.5581 125.678L58.9249 124.904ZM76.3969 124.904L75.7636 125.678L76.3969 124.904ZM76.3969 139.544L75.7636 138.77L76.3969 139.544ZM67.6609 151.104C71.0031 151.104 74.0777 150.711 76.9227 149.862L76.3511 147.946C73.724 148.729 70.8466 149.104 67.6609 149.104V151.104ZM76.9116 149.866C79.7154 149.064 82.1889 147.807 84.2216 146.181L82.9722 144.619C81.1648 146.065 78.9344 147.208 76.3622 147.942L76.9116 149.866ZM84.2216 146.181C86.268 144.544 87.8012 142.547 88.9186 140.16L87.1072 139.312C86.1125 141.437 84.7657 143.184 82.9722 144.619L84.2216 146.181ZM88.9186 140.16C90.0431 137.758 90.5969 135.115 90.5969 132.2H88.5969C88.5969 134.853 88.0946 137.202 87.1072 139.312L88.9186 140.16ZM90.5969 132.2C90.5969 129.332 90.0426 126.689 88.9186 124.288L87.1072 125.136C88.0952 127.247 88.5969 129.596 88.5969 132.2H90.5969ZM88.9186 124.288C87.8049 121.909 86.2743 119.861 84.2216 118.219L82.9722 119.781C84.7594 121.211 86.1088 123.003 87.1072 125.136L88.9186 124.288ZM84.2216 118.219C82.1812 116.587 79.708 115.383 76.9274 114.539L76.3464 116.453C78.9417 117.241 81.1725 118.341 82.9722 119.781L84.2216 118.219ZM76.9071 114.533C74.0817 113.74 71.0147 113.296 67.6609 113.296V115.296C70.835 115.296 73.72 115.716 76.3666 116.459L76.9071 114.533ZM67.6609 113.296C64.3094 113.296 61.1926 113.739 58.4102 114.534L58.9596 116.458C61.5532 115.716 64.4844 115.296 67.6609 115.296V113.296ZM58.3991 114.538C55.5622 115.384 53.1375 116.589 51.1002 118.219L52.3496 119.781C54.1522 118.339 56.3355 117.24 58.9707 116.454L58.3991 114.538ZM51.1002 118.219C49.056 119.854 47.469 121.902 46.3959 124.304L48.2219 125.12C49.1647 123.01 50.5537 121.218 52.3496 119.781L51.1002 118.219ZM46.4032 124.288C45.2742 126.7 44.7729 129.346 44.7729 132.2H46.7729C46.7729 129.582 47.2316 127.236 48.2146 125.136L46.4032 124.288ZM44.7729 132.2C44.7729 135.101 45.2737 137.747 46.4032 140.16L48.2146 139.312C47.232 137.213 46.7729 134.867 46.7729 132.2H44.7729ZM46.3959 140.144C47.4724 142.553 49.0627 144.551 51.1002 146.181L52.3496 144.619C50.547 143.177 49.1613 141.431 48.2219 139.328L46.3959 140.144ZM51.1002 146.181C53.1295 147.804 55.5552 149.064 58.4146 149.867L58.9551 147.941C56.3425 147.208 54.1602 146.068 52.3496 144.619L51.1002 146.181ZM58.3944 149.861C61.1962 150.711 64.3214 151.104 67.6609 151.104V149.104C64.4724 149.104 61.5495 148.729 58.9754 147.947L58.3944 149.861ZM67.6609 141.136C64.0624 141.136 61.387 140.306 59.5101 138.77L58.2436 140.318C60.5907 142.238 63.7714 143.136 67.6609 143.136V141.136ZM59.5101 138.77C57.669 137.264 56.7089 135.122 56.7089 132.2H54.7089C54.7089 135.614 55.8607 138.368 58.2436 140.318L59.5101 138.77ZM56.7089 132.2C56.7089 129.33 57.6656 127.192 59.5496 125.685L58.3002 124.123C55.8642 126.072 54.7089 128.83 54.7089 132.2H56.7089ZM59.5581 125.678C61.4431 124.136 64.1244 123.264 67.6609 123.264V121.264C63.8053 121.264 60.6306 122.216 58.2916 124.13L59.5581 125.678ZM67.6609 123.264C71.1973 123.264 73.8786 124.136 75.7636 125.678L77.0301 124.13C74.6911 122.216 71.5164 121.264 67.6609 121.264V123.264ZM75.7636 125.678C77.6155 127.193 78.6129 129.342 78.6129 132.2H80.6129C80.6129 128.818 79.4023 126.071 77.0301 124.13L75.7636 125.678ZM78.6129 132.2C78.6129 135.109 77.6135 137.257 75.7636 138.77L77.0301 140.318C79.4042 138.375 80.6129 135.627 80.6129 132.2H78.6129ZM75.7636 138.77C73.8857 140.307 71.2095 141.136 67.6609 141.136V143.136C71.5042 143.136 74.684 142.237 77.0301 140.318L75.7636 138.77ZM132.56 115.4V114.4H132.075L131.775 114.781L132.56 115.4ZM119.84 131.528L119.053 132.144L119.837 133.147L120.625 132.147L119.84 131.528ZM107.216 115.4L108.004 114.784L107.703 114.4H107.216V115.4ZM96.5122 115.4V114.4H95.5122V115.4H96.5122ZM96.5122 149H95.5122V150H96.5122V149ZM105.968 149V150H106.968V149H105.968ZM105.968 127.544L106.743 126.912L104.968 124.736V127.544H105.968ZM119.36 143.96L118.585 144.592L118.885 144.96H119.36V143.96ZM119.84 143.96V144.96H120.315L120.615 144.592L119.84 143.96ZM133.232 127.544H134.232V124.736L132.457 126.912L133.232 127.544ZM133.232 149H132.232V150H133.232V149ZM142.976 149V150H143.976V149H142.976ZM142.976 115.4H143.976V114.4H142.976V115.4ZM131.775 114.781L119.055 130.909L120.625 132.147L133.345 116.019L131.775 114.781ZM120.628 130.912L108.004 114.784L106.429 116.016L119.053 132.144L120.628 130.912ZM107.216 114.4H96.5122V116.4H107.216V114.4ZM95.5122 115.4V149H97.5122V115.4H95.5122ZM96.5122 150H105.968V148H96.5122V150ZM106.968 149V127.544H104.968V149H106.968ZM105.193 128.176L118.585 144.592L120.135 143.328L106.743 126.912L105.193 128.176ZM119.36 144.96H119.84V142.96H119.36V144.96ZM120.615 144.592L134.007 128.176L132.457 126.912L119.065 143.328L120.615 144.592ZM132.232 127.544V149H134.232V127.544H132.232ZM133.232 150H142.976V148H133.232V150ZM143.976 149V115.4H141.976V149H143.976ZM142.976 114.4H132.56V116.4H142.976V114.4ZM161.592 149V150H162.592V149H161.592ZM161.592 115.4H162.592V114.4H161.592V115.4ZM151.8 115.4V114.4H150.8V115.4H151.8ZM151.8 149H150.8V150H151.8V149ZM162.592 149V115.4H160.592V149H162.592ZM161.592 114.4H151.8V116.4H161.592V114.4ZM150.8 115.4V149H152.8V115.4H150.8ZM151.8 150H161.592V148H151.8V150ZM200.767 115.4V114.4H199.767V115.4H200.767ZM200.767 135.944L200.049 136.64L201.767 138.412V135.944H200.767ZM180.847 115.4L181.565 114.704L181.27 114.4H180.847V115.4ZM170.479 115.4V114.4H169.479V115.4H170.479ZM170.479 149H169.479V150H170.479V149ZM179.935 149V150H180.935V149H179.935ZM179.935 126.92L180.648 126.219L178.935 124.476V126.92H179.935ZM201.631 149L200.918 149.701L201.212 150H201.631V149ZM210.223 149V150H211.223V149H210.223ZM210.223 115.4H211.223V114.4H210.223V115.4ZM199.767 115.4V135.944H201.767V115.4H199.767ZM201.485 135.248L181.565 114.704L180.129 116.096L200.049 136.64L201.485 135.248ZM180.847 114.4H170.479V116.4H180.847V114.4ZM169.479 115.4V149H171.479V115.4H169.479ZM170.479 150H179.935V148H170.479V150ZM180.935 149V126.92H178.935V149H180.935ZM179.222 127.621L200.918 149.701L202.344 148.299L180.648 126.219L179.222 127.621ZM201.631 150H210.223V148H201.631V150ZM211.223 149V115.4H209.223V149H211.223ZM210.223 114.4H200.767V116.4H210.223V114.4ZM258.664 129.56H259.664V128.56H258.664V129.56ZM238.456 129.56V128.56H237.456V129.56H238.456ZM238.456 136.424H237.456V137.424H238.456V136.424ZM249.592 136.424H250.592V135.424H249.592V136.424ZM249.592 139.448L250.266 140.186L250.592 139.889V139.448H249.592ZM230.392 139.784L231.019 139.005L231.008 138.996L230.392 139.784ZM230.344 124.664L229.719 123.883L229.717 123.885L230.344 124.664ZM245.464 122.936L245.821 122.002L245.809 121.997L245.797 121.993L245.464 122.936ZM250.12 125.768L249.465 126.524L250.07 127.048L250.714 126.573L250.12 125.768ZM257.272 120.488L257.866 121.293L258.843 120.571L257.948 119.751L257.272 120.488ZM252.856 117.416L253.35 116.546L253.341 116.541L253.332 116.536L252.856 117.416ZM246.664 115.112L246.902 114.141L246.893 114.138L246.883 114.136L246.664 115.112ZM230.2 115.496L229.934 114.532L229.927 114.534L229.919 114.536L230.2 115.496ZM223.144 119L223.759 119.788L223.769 119.781L223.144 119ZM218.68 124.664L219.586 125.088L219.59 125.079L218.68 124.664ZM218.68 139.736L219.593 139.328L219.588 139.316L219.582 139.305L218.68 139.736ZM223.144 145.4L223.769 144.619L223.759 144.612L223.144 145.4ZM230.2 148.904L230.481 147.944L230.474 147.942L230.466 147.94L230.2 148.904ZM250.936 148.136L251.312 149.063L251.317 149.061L250.936 148.136ZM258.664 142.664L259.44 143.295L259.664 143.019V142.664H258.664ZM258.664 128.56H238.456V130.56H258.664V128.56ZM237.456 129.56V136.424H239.456V129.56H237.456ZM238.456 137.424H249.592V135.424H238.456V137.424ZM248.592 136.424V139.448H250.592V136.424H248.592ZM248.918 138.71C246.966 140.492 244.036 141.424 239.848 141.424V143.424C244.3 143.424 247.803 142.436 250.266 140.186L248.918 138.71ZM239.848 141.424C235.891 141.424 232.982 140.584 231.019 139.005L229.765 140.563C232.219 142.536 235.645 143.424 239.848 143.424V141.424ZM231.008 138.996C229.09 137.495 228.08 135.27 228.08 132.2H226.08C226.08 135.754 227.278 138.617 229.776 140.572L231.008 138.996ZM228.08 132.2C228.08 129.177 229.043 126.994 230.971 125.443L229.717 123.885C227.229 125.886 226.08 128.695 226.08 132.2H228.08ZM230.969 125.445C232.891 123.907 235.759 123.024 239.704 123.024V121.024C235.489 121.024 232.117 121.965 229.719 123.883L230.969 125.445ZM239.704 123.024C241.811 123.024 243.617 123.344 245.131 123.879L245.797 121.993C244.047 121.376 242.014 121.024 239.704 121.024V123.024ZM245.107 123.87C246.622 124.449 248.107 125.346 249.465 126.524L250.775 125.012C249.254 123.694 247.57 122.671 245.821 122.002L245.107 123.87ZM250.714 126.573L257.866 121.293L256.678 119.683L249.526 124.963L250.714 126.573ZM257.948 119.751C256.719 118.624 255.16 117.574 253.35 116.546L252.363 118.286C254.105 119.274 255.521 120.24 256.596 121.225L257.948 119.751ZM253.332 116.536C251.468 115.529 249.321 114.733 246.902 114.141L246.426 116.083C248.711 116.643 250.693 117.383 252.381 118.296L253.332 116.536ZM246.883 114.136C244.465 113.593 241.991 113.296 239.464 113.296V115.296C241.833 115.296 244.16 115.575 246.445 116.088L246.883 114.136ZM239.464 113.296C235.97 113.296 232.809 113.739 229.934 114.532L230.466 116.46C233.16 115.717 236.142 115.296 239.464 115.296V113.296ZM229.919 114.536C227.038 115.381 224.562 116.585 222.519 118.219L223.769 119.781C225.567 118.343 227.794 117.243 230.481 116.456L229.919 114.536ZM222.529 118.212C220.431 119.849 218.844 121.898 217.77 124.249L219.59 125.079C220.533 123.014 221.921 121.223 223.759 119.788L222.529 118.212ZM217.774 124.24C216.645 126.653 216.144 129.299 216.144 132.2H218.144C218.144 129.533 218.603 127.187 219.586 125.088L217.774 124.24ZM216.144 132.2C216.144 135.096 216.643 137.795 217.778 140.167L219.582 139.305C218.605 137.261 218.144 134.872 218.144 132.2H216.144ZM217.767 140.144C218.844 142.555 220.437 144.555 222.529 146.188L223.759 144.612C221.915 143.173 220.532 141.429 219.593 139.328L217.767 140.144ZM222.519 146.181C224.554 147.809 227.031 149.067 229.934 149.868L230.466 147.94C227.802 147.205 225.574 146.063 223.769 144.619L222.519 146.181ZM229.919 149.864C232.812 150.712 235.982 151.104 239.464 151.104V149.104C236.13 149.104 233.156 148.728 230.481 147.944L229.919 149.864ZM239.464 151.104C243.877 151.104 247.851 150.467 251.312 149.063L250.56 147.209C247.397 148.493 243.691 149.104 239.464 149.104V151.104ZM251.317 149.061C254.703 147.666 257.443 145.753 259.44 143.295L257.888 142.033C256.141 144.183 253.697 145.918 250.555 147.211L251.317 149.061ZM259.664 142.664V129.56H257.664V142.664H259.664ZM297.583 127.688L297.667 126.691L297.662 126.691L297.583 127.688ZM290.576 126.92L290.807 125.947L290.797 125.945L290.576 126.92ZM288.367 126.008L289.032 125.261L288.988 125.222L288.941 125.189L288.367 126.008ZM296.384 121.64L296.401 120.64L296.392 120.64H296.384V121.64ZM309.871 125.384L309.301 126.205L310.064 126.735L310.648 126.014L309.871 125.384ZM314.815 119.288L315.592 119.918L316.274 119.077L315.382 118.464L314.815 119.288ZM306.608 115.592L306.871 114.627L306.867 114.626L306.608 115.592ZM288.608 115.16L288.824 116.136L288.828 116.135L288.608 115.16ZM282.272 117.752L281.695 116.935L281.69 116.938L282.272 117.752ZM278.863 121.544L279.771 121.965L279.777 121.952L279.783 121.938L278.863 121.544ZM282.464 132.536L282.96 131.668L282.464 132.536ZM297.008 135.992L296.921 136.988L296.927 136.989L297.008 135.992ZM304.448 137.144L304.131 138.093L304.448 137.144ZM288.896 141.368L289.207 140.418L288.896 141.368ZM281.743 137.48L282.393 136.719L281.63 136.068L280.981 136.833L281.743 137.48ZM276.608 143.528L275.845 142.881L275.179 143.666L275.983 144.309L276.608 143.528ZM283.328 147.416L283.711 146.492L283.705 146.49L283.328 147.416ZM290.96 149.576L291.112 148.588L291.109 148.587L290.96 149.576ZM305.695 149.288L305.933 150.259L305.695 149.288ZM311.599 146.888L311.051 146.052L311.045 146.056L311.599 146.888ZM315.151 143.192L316.022 143.685L316.028 143.674L316.034 143.663L315.151 143.192ZM312.176 131.144L311.648 131.994V131.994L312.176 131.144ZM297.662 126.691C293.98 126.4 291.721 126.165 290.807 125.947L290.344 127.893C291.446 128.155 293.891 128.4 297.505 128.685L297.662 126.691ZM290.797 125.945C289.771 125.712 289.264 125.467 289.032 125.261L287.703 126.755C288.335 127.317 289.268 127.648 290.354 127.895L290.797 125.945ZM288.941 125.189C288.82 125.104 288.774 125.037 288.751 124.989C288.725 124.935 288.695 124.841 288.695 124.664H286.695C286.695 125.063 286.762 125.473 286.952 125.863C287.145 126.259 287.435 126.576 287.794 126.827L288.941 125.189ZM288.695 124.664C288.695 124.399 288.862 123.905 290.325 123.402L289.674 121.51C288.065 122.063 286.695 123.009 286.695 124.664H288.695ZM290.325 123.402C291.715 122.924 293.704 122.64 296.384 122.64V120.64C293.591 120.64 291.356 120.932 289.674 121.51L290.325 123.402ZM296.366 122.64C301.75 122.733 306.052 123.949 309.301 126.205L310.442 124.563C306.779 122.019 302.057 120.739 296.401 120.64L296.366 122.64ZM310.648 126.014L315.592 119.918L314.039 118.658L309.095 124.754L310.648 126.014ZM315.382 118.464C312.975 116.809 310.134 115.517 306.871 114.627L306.344 116.557C309.417 117.395 312.048 118.599 314.249 120.112L315.382 118.464ZM306.867 114.626C303.56 113.738 300.064 113.296 296.384 113.296V115.296C299.903 115.296 303.223 115.718 306.348 116.558L306.867 114.626ZM296.384 113.296C293.67 113.296 291.004 113.592 288.387 114.185L288.828 116.135C291.299 115.576 293.817 115.296 296.384 115.296V113.296ZM288.391 114.184C285.71 114.78 283.464 115.686 281.695 116.935L282.848 118.569C284.343 117.514 286.321 116.692 288.824 116.136L288.391 114.184ZM281.69 116.938C279.933 118.193 278.621 119.572 277.944 121.15L279.783 121.938C280.258 120.828 281.25 119.711 282.853 118.566L281.69 116.938ZM277.956 121.123C277.277 122.586 276.952 124.025 276.952 125.432H278.952C278.952 124.343 279.202 123.19 279.771 121.965L277.956 121.123ZM276.952 125.432C276.952 128.874 278.687 131.53 281.967 133.404L282.96 131.668C280.192 130.086 278.952 128.038 278.952 125.432H276.952ZM281.967 133.404C285.186 135.244 290.214 136.409 296.921 136.988L297.094 134.996C290.457 134.423 285.789 133.284 282.96 131.668L281.967 133.404ZM296.927 136.989C300.474 137.276 302.816 137.654 304.131 138.093L304.764 136.195C303.199 135.674 300.645 135.284 297.088 134.995L296.927 136.989ZM304.131 138.093C304.759 138.302 305.131 138.543 305.338 138.764C305.524 138.962 305.608 139.173 305.608 139.448H307.608C307.608 138.667 307.331 137.966 306.797 137.396C306.284 136.849 305.576 136.466 304.764 136.195L304.131 138.093ZM305.608 139.448C305.608 139.76 305.514 140.004 305.316 140.229C305.101 140.475 304.723 140.737 304.096 140.972C302.829 141.447 300.816 141.712 297.967 141.712V143.712C300.879 143.712 303.186 143.449 304.799 142.844C305.612 142.539 306.314 142.123 306.819 141.55C307.341 140.956 307.608 140.24 307.608 139.448H305.608ZM297.967 141.712C294.792 141.712 291.875 141.292 289.207 140.418L288.584 142.318C291.484 143.268 294.615 143.712 297.967 143.712V141.712ZM289.207 140.418C286.528 139.54 284.247 138.303 282.393 136.719L281.094 138.241C283.176 140.017 285.695 141.372 288.584 142.318L289.207 140.418ZM280.981 136.833L275.845 142.881L277.37 144.175L282.506 138.127L280.981 136.833ZM275.983 144.309C277.983 145.909 280.275 147.252 282.95 148.342L283.705 146.49C281.196 145.468 279.072 144.219 277.232 142.747L275.983 144.309ZM282.944 148.34C285.558 149.425 288.18 150.168 290.81 150.565L291.109 148.587C288.651 148.216 286.185 147.519 283.711 146.492L282.944 148.34ZM290.807 150.564C293.357 150.957 295.712 151.104 297.776 151.104V149.104C295.807 149.104 293.554 148.963 291.112 148.588L290.807 150.564ZM297.776 151.104C300.754 151.104 303.479 150.86 305.933 150.259L305.458 148.317C303.208 148.868 300.653 149.104 297.776 149.104V151.104ZM305.933 150.259C308.353 149.667 310.441 148.862 312.154 147.72L311.045 146.056C309.59 147.026 307.742 147.757 305.458 148.317L305.933 150.259ZM312.148 147.724C313.802 146.639 315.119 145.278 316.022 143.685L314.281 142.699C313.552 143.986 312.469 145.121 311.051 146.052L312.148 147.724ZM316.034 143.663C316.872 142.091 317.352 140.395 317.352 138.488H315.352C315.352 140.037 314.967 141.413 314.269 142.721L316.034 143.663ZM317.352 138.488C317.352 134.96 315.768 132.197 312.703 130.294L311.648 131.994C314.151 133.547 315.352 135.68 315.352 138.488H317.352ZM312.703 130.294C309.701 128.431 304.596 127.269 297.667 126.691L297.5 128.685C304.395 129.259 309.082 130.401 311.648 131.994L312.703 130.294ZM351.763 148.904L351.488 147.942L351.477 147.946L351.763 148.904ZM358.723 145.4L359.348 146.181L358.723 145.4ZM363.139 139.736L364.045 140.16L363.139 139.736ZM363.139 124.712L364.045 124.288L363.139 124.712ZM358.723 119L358.098 119.781V119.781L358.723 119ZM351.763 115.496L352.054 114.539L352.044 114.536L352.033 114.533L351.763 115.496ZM333.811 115.496L333.536 114.534L333.525 114.538L333.811 115.496ZM326.851 119L327.476 119.781V119.781L326.851 119ZM322.435 124.712L323.341 125.136L323.345 125.128L323.348 125.12L322.435 124.712ZM322.435 139.736L323.348 139.328L323.345 139.32L323.341 139.312L322.435 139.736ZM326.851 145.4L326.226 146.181L326.851 145.4ZM333.811 148.904L334.102 147.947L334.092 147.944L334.081 147.941L333.811 148.904ZM334.051 124.904L334.676 125.685L334.684 125.678L334.051 124.904ZM351.523 124.904L350.89 125.678L351.523 124.904ZM351.523 139.544L350.89 138.77L351.523 139.544ZM342.787 151.104C346.129 151.104 349.204 150.711 352.049 149.862L351.477 147.946C348.85 148.729 345.973 149.104 342.787 149.104V151.104ZM352.038 149.866C354.842 149.064 357.315 147.807 359.348 146.181L358.098 144.619C356.291 146.065 354.061 147.208 351.488 147.942L352.038 149.866ZM359.348 146.181C361.394 144.544 362.927 142.547 364.045 140.16L362.233 139.312C361.239 141.437 359.892 143.184 358.098 144.619L359.348 146.181ZM364.045 140.16C365.169 137.758 365.723 135.115 365.723 132.2H363.723C363.723 134.853 363.221 137.202 362.233 139.312L364.045 140.16ZM365.723 132.2C365.723 129.332 365.169 126.689 364.045 124.288L362.233 125.136C363.221 127.247 363.723 129.596 363.723 132.2H365.723ZM364.045 124.288C362.931 121.909 361.401 119.861 359.348 118.219L358.098 119.781C359.886 121.211 361.235 123.003 362.233 125.136L364.045 124.288ZM359.348 118.219C357.307 116.587 354.834 115.383 352.054 114.539L351.473 116.453C354.068 117.241 356.299 118.341 358.098 119.781L359.348 118.219ZM352.033 114.533C349.208 113.74 346.141 113.296 342.787 113.296V115.296C345.961 115.296 348.846 115.716 351.493 116.459L352.033 114.533ZM342.787 113.296C339.436 113.296 336.319 113.739 333.536 114.534L334.086 116.458C336.679 115.716 339.611 115.296 342.787 115.296V113.296ZM333.525 114.538C330.688 115.384 328.264 116.589 326.226 118.219L327.476 119.781C329.278 118.339 331.462 117.24 334.097 116.454L333.525 114.538ZM326.226 118.219C324.182 119.854 322.595 121.902 321.522 124.304L323.348 125.12C324.291 123.01 325.68 121.218 327.476 119.781L326.226 118.219ZM321.529 124.288C320.4 126.7 319.899 129.346 319.899 132.2H321.899C321.899 129.582 322.358 127.236 323.341 125.136L321.529 124.288ZM319.899 132.2C319.899 135.101 320.4 137.747 321.529 140.16L323.341 139.312C322.358 137.213 321.899 134.867 321.899 132.2H319.899ZM321.522 140.144C322.599 142.553 324.189 144.551 326.226 146.181L327.476 144.619C325.673 143.177 324.288 141.431 323.348 139.328L321.522 140.144ZM326.226 146.181C328.256 147.804 330.681 149.064 333.541 149.867L334.081 147.941C331.469 147.208 329.286 146.068 327.476 144.619L326.226 146.181ZM333.521 149.861C336.322 150.711 339.448 151.104 342.787 151.104V149.104C339.599 149.104 336.676 148.729 334.102 147.947L333.521 149.861ZM342.787 141.136C339.189 141.136 336.513 140.306 334.636 138.77L333.37 140.318C335.717 142.238 338.898 143.136 342.787 143.136V141.136ZM334.636 138.77C332.795 137.264 331.835 135.122 331.835 132.2H329.835C329.835 135.614 330.987 138.368 333.37 140.318L334.636 138.77ZM331.835 132.2C331.835 129.33 332.792 127.192 334.676 125.685L333.426 124.123C330.99 126.072 329.835 128.83 329.835 132.2H331.835ZM334.684 125.678C336.569 124.136 339.251 123.264 342.787 123.264V121.264C338.932 121.264 335.757 122.216 333.418 124.13L334.684 125.678ZM342.787 123.264C346.324 123.264 349.005 124.136 350.89 125.678L352.156 124.13C349.817 122.216 346.643 121.264 342.787 121.264V123.264ZM350.89 125.678C352.742 127.193 353.739 129.342 353.739 132.2H355.739C355.739 128.818 354.529 126.071 352.156 124.13L350.89 125.678ZM353.739 132.2C353.739 135.109 352.74 137.257 350.89 138.77L352.156 140.318C354.53 138.375 355.739 135.627 355.739 132.2H353.739ZM350.89 138.77C349.012 140.307 346.336 141.136 342.787 141.136V143.136C346.63 143.136 349.81 142.237 352.156 140.318L350.89 138.77ZM400.583 148.904L400.308 147.942L400.297 147.946L400.583 148.904ZM407.543 145.4L408.167 146.181L407.543 145.4ZM411.959 139.736L412.864 140.16L411.959 139.736ZM411.959 124.712L412.864 124.288L411.959 124.712ZM407.543 119L406.918 119.781V119.781L407.543 119ZM400.583 115.496L400.873 114.539L400.863 114.536L400.853 114.533L400.583 115.496ZM382.631 115.496L382.356 114.534L382.345 114.538L382.631 115.496ZM375.671 119L376.295 119.781V119.781L375.671 119ZM371.255 124.712L372.16 125.136L372.164 125.128L372.168 125.12L371.255 124.712ZM371.255 139.736L372.168 139.328L372.164 139.32L372.16 139.312L371.255 139.736ZM375.671 145.4L375.046 146.181L375.671 145.4ZM382.631 148.904L382.921 147.947L382.911 147.944L382.901 147.941L382.631 148.904ZM382.871 124.904L383.495 125.685L383.504 125.678L382.871 124.904ZM400.343 124.904L399.709 125.678L400.343 124.904ZM400.343 139.544L399.709 138.77L400.343 139.544ZM391.607 151.104C394.949 151.104 398.023 150.711 400.868 149.862L400.297 147.946C397.67 148.729 394.792 149.104 391.607 149.104V151.104ZM400.857 149.866C403.661 149.064 406.135 147.807 408.167 146.181L406.918 144.619C405.11 146.065 402.88 147.208 400.308 147.942L400.857 149.866ZM408.167 146.181C410.214 144.544 411.747 142.547 412.864 140.16L411.053 139.312C410.058 141.437 408.711 143.184 406.918 144.619L408.167 146.181ZM412.864 140.16C413.989 137.758 414.543 135.115 414.543 132.2H412.543C412.543 134.853 412.04 137.202 411.053 139.312L412.864 140.16ZM414.543 132.2C414.543 129.332 413.988 126.689 412.864 124.288L411.053 125.136C412.041 127.247 412.543 129.596 412.543 132.2H414.543ZM412.864 124.288C411.751 121.909 410.22 119.861 408.167 118.219L406.918 119.781C408.705 121.211 410.054 123.003 411.053 125.136L412.864 124.288ZM408.167 118.219C406.127 116.587 403.654 115.383 400.873 114.539L400.292 116.453C402.887 117.241 405.118 118.341 406.918 119.781L408.167 118.219ZM400.853 114.533C398.027 113.74 394.96 113.296 391.607 113.296V115.296C394.781 115.296 397.666 115.716 400.312 116.459L400.853 114.533ZM391.607 113.296C388.255 113.296 385.138 113.739 382.356 114.534L382.905 116.458C385.499 115.716 388.43 115.296 391.607 115.296V113.296ZM382.345 114.538C379.508 115.384 377.083 116.589 375.046 118.219L376.295 119.781C378.098 118.339 380.281 117.24 382.916 116.454L382.345 114.538ZM375.046 118.219C373.002 119.854 371.415 121.902 370.341 124.304L372.168 125.12C373.11 123.01 374.499 121.218 376.295 119.781L375.046 118.219ZM370.349 124.288C369.22 126.7 368.719 129.346 368.719 132.2H370.719C370.719 129.582 371.177 127.236 372.16 125.136L370.349 124.288ZM368.719 132.2C368.719 135.101 369.219 137.747 370.349 140.16L372.16 139.312C371.178 137.213 370.719 134.867 370.719 132.2H368.719ZM370.341 140.144C371.418 142.553 373.008 144.551 375.046 146.181L376.295 144.619C374.493 143.177 373.107 141.431 372.168 139.328L370.341 140.144ZM375.046 146.181C377.075 147.804 379.501 149.064 382.36 149.867L382.901 147.941C380.288 147.208 378.106 146.068 376.295 144.619L375.046 146.181ZM382.34 149.861C385.142 150.711 388.267 151.104 391.607 151.104V149.104C388.418 149.104 385.495 148.729 382.921 147.947L382.34 149.861ZM391.607 141.136C388.008 141.136 385.333 140.306 383.456 138.77L382.189 140.318C384.536 142.238 387.717 143.136 391.607 143.136V141.136ZM383.456 138.77C381.615 137.264 380.655 135.122 380.655 132.2H378.655C378.655 135.614 379.806 138.368 382.189 140.318L383.456 138.77ZM380.655 132.2C380.655 129.33 381.611 127.192 383.495 125.685L382.246 124.123C379.81 126.072 378.655 128.83 378.655 132.2H380.655ZM383.504 125.678C385.389 124.136 388.07 123.264 391.607 123.264V121.264C387.751 121.264 384.576 122.216 382.237 124.13L383.504 125.678ZM391.607 123.264C395.143 123.264 397.824 124.136 399.709 125.678L400.976 124.13C398.637 122.216 395.462 121.264 391.607 121.264V123.264ZM399.709 125.678C401.561 127.193 402.559 129.342 402.559 132.2H404.559C404.559 128.818 403.348 126.071 400.976 124.13L399.709 125.678ZM402.559 132.2C402.559 135.109 401.559 137.257 399.709 138.77L400.976 140.318C403.35 138.375 404.559 135.627 404.559 132.2H402.559ZM399.709 138.77C397.831 140.307 395.155 141.136 391.607 141.136V143.136C395.45 143.136 398.63 142.237 400.976 140.318L399.709 138.77ZM450.746 115.4V114.4H449.746V115.4H450.746ZM450.746 135.944L450.028 136.64L451.746 138.412V135.944H450.746ZM430.826 115.4L431.544 114.704L431.249 114.4H430.826V115.4ZM420.458 115.4V114.4H419.458V115.4H420.458ZM420.458 149H419.458V150H420.458V149ZM429.914 149V150H430.914V149H429.914ZM429.914 126.92L430.627 126.219L428.914 124.476V126.92H429.914ZM451.61 149L450.897 149.701L451.191 150H451.61V149ZM460.202 149V150H461.202V149H460.202ZM460.202 115.4H461.202V114.4H460.202V115.4ZM449.746 115.4V135.944H451.746V115.4H449.746ZM451.464 135.248L431.544 114.704L430.108 116.096L450.028 136.64L451.464 135.248ZM430.826 114.4H420.458V116.4H430.826V114.4ZM419.458 115.4V149H421.458V115.4H419.458ZM420.458 150H429.914V148H420.458V150ZM430.914 149V126.92H428.914V149H430.914ZM429.201 127.621L450.897 149.701L452.323 148.299L430.627 126.219L429.201 127.621ZM451.61 150H460.202V148H451.61V150ZM461.202 149V115.4H459.202V149H461.202ZM460.202 114.4H450.746V116.4H460.202V114.4Z" fill="white"/>
<path d="M15.072 29.544L15.714 28.7772L15.7052 28.77L15.072 29.544ZM15.072 14.904L15.7053 15.678L15.7139 15.6708L15.072 14.904ZM33.6 17.352L32.7643 17.9012L33.2568 18.6507L34.0553 18.2423L33.6 17.352ZM42.048 13.032L42.5033 13.9223L43.4877 13.419L42.8883 12.4899L42.048 13.032ZM38.4 9.096L39.0247 8.31513L39.0185 8.31015L39.0122 8.30527L38.4 9.096ZM33.648 6.312L34.0419 5.39285L34.0419 5.39285L33.648 6.312ZM28.512 4.776L28.6764 3.7896V3.7896L28.512 4.776ZM14.784 5.496L14.5093 4.53448L14.5014 4.53673L14.4935 4.53912L14.784 5.496ZM7.92 9.048L8.54474 9.82893L8.55432 9.82107L7.92 9.048ZM3.552 14.712L4.45773 15.136L4.46169 15.1273L3.552 14.712ZM3.504 29.688L4.41704 29.28L4.41369 29.2727L3.504 29.688ZM7.872 35.4L8.50637 34.6269L8.4967 34.6191L7.872 35.4ZM14.64 38.904L14.9403 37.9501L14.9298 37.9469L14.9193 37.9438L14.64 38.904ZM29.472 39.432L29.2576 38.4553L29.249 38.4571L29.2404 38.4592L29.472 39.432ZM34.848 37.608L34.4222 36.7032L34.848 37.608ZM42.192 31.32L43.0437 31.8441L43.6096 30.9245L42.6494 30.4307L42.192 31.32ZM33.792 27L34.2494 26.1107L33.4475 25.6983L32.9546 26.4534L33.792 27ZM23.472 31.136C20.0809 31.136 17.5485 30.3131 15.7139 28.7772L14.4301 30.3108C16.7235 32.2309 19.7591 33.136 23.472 33.136V31.136ZM15.7052 28.77C13.8728 27.2708 12.952 25.1353 12.952 22.2H10.952C10.952 25.6007 12.0472 28.3612 14.4388 30.318L15.7052 28.77ZM12.952 22.2C12.952 19.3155 13.871 17.1787 15.7052 15.678L14.4388 14.13C12.049 16.0853 10.952 18.8445 10.952 22.2H12.952ZM15.7139 15.6708C17.5559 14.1286 20.0933 13.264 23.472 13.264V11.264C19.7467 11.264 16.7161 12.2234 14.4301 14.1372L15.7139 15.6708ZM23.472 13.264C27.7369 13.264 30.7629 14.8556 32.7643 17.9012L34.4357 16.8028C32.0211 13.1284 28.3271 11.264 23.472 11.264V13.264ZM34.0553 18.2423L42.5033 13.9223L41.5927 12.1417L33.1447 16.4617L34.0553 18.2423ZM42.8883 12.4899C41.8575 10.8922 40.5293 9.51878 39.0247 8.31513L37.7753 9.87687C39.1507 10.9772 40.3185 12.1958 41.2077 13.5741L42.8883 12.4899ZM39.0122 8.30527C37.4532 7.09833 35.7951 6.14421 34.0419 5.39285L33.2541 7.23114C34.8609 7.91979 36.3708 8.78967 37.7878 9.88672L39.0122 8.30527ZM34.0419 5.39285C32.2974 4.64519 30.4924 4.09228 28.6764 3.7896L28.3476 5.76239C29.9876 6.03572 31.6386 6.53881 33.2541 7.23114L34.0419 5.39285ZM28.6764 3.7896C26.9237 3.49748 25.2306 3.296 23.616 3.296V5.296C25.0734 5.296 26.6443 5.47852 28.3476 5.76239L28.6764 3.7896ZM23.616 3.296C20.3088 3.296 17.2882 3.74049 14.5093 4.53448L15.0587 6.45752C17.6558 5.71551 20.4912 5.296 23.616 5.296V3.296ZM14.4935 4.53912C11.697 5.38805 9.27207 6.64507 7.28568 8.27493L8.55432 9.82107C10.3119 8.37893 12.495 7.23595 15.0745 6.45288L14.4935 4.53912ZM7.29531 8.26713C5.24394 9.90822 3.71038 11.9571 2.64231 14.2967L4.46169 15.1273C5.40962 13.0509 6.75606 11.2598 8.54469 9.82887L7.29531 8.26713ZM2.64631 14.2881C1.51732 16.7 1.016 19.3455 1.016 22.2H3.016C3.016 19.5825 3.47468 17.236 4.45769 15.1359L2.64631 14.2881ZM1.016 22.2C1.016 25.0995 1.51624 27.7418 2.59431 30.1033L4.41369 29.2727C3.47576 27.2182 3.016 24.8685 3.016 22.2H1.016ZM2.59099 30.0959C3.65968 32.4878 5.19482 34.5389 7.2473 36.1809L8.4967 34.6191C6.70918 33.1891 5.36433 31.4002 4.41701 29.2801L2.59099 30.0959ZM7.23768 36.1731C9.21893 37.7987 11.597 39.0602 14.3607 39.8642L14.9193 37.9438C12.403 37.2118 10.2691 36.0733 8.50632 34.6269L7.23768 36.1731ZM14.3397 39.8578C17.0476 40.7103 20.0318 41.104 23.232 41.104V39.104C20.1922 39.104 17.4164 38.7297 14.9403 37.9501L14.3397 39.8578ZM23.232 41.104C25.4513 41.104 27.5955 40.9067 29.7036 40.4048L29.2404 38.4592C27.3165 38.9173 25.3327 39.104 23.232 39.104V41.104ZM29.6864 40.4087C31.7297 39.9602 33.5765 39.3116 35.2738 38.5128L34.4222 36.7032C32.8555 37.4404 31.1503 38.0398 29.2576 38.4553L29.6864 40.4087ZM35.2738 38.5128C36.9914 37.7045 38.5047 36.6952 39.8139 35.5874L38.5221 34.0606C37.3354 35.0648 35.9686 35.9755 34.4222 36.7032L35.2738 38.5128ZM39.8139 35.5874C41.1443 34.4617 42.2212 33.1805 43.0437 31.8441L41.3403 30.7959C40.6268 31.9555 39.6877 33.0743 38.5221 34.0606L39.8139 35.5874ZM42.6494 30.4307L34.2494 26.1107L33.3347 27.8893L41.7347 32.2093L42.6494 30.4307ZM32.9546 26.4534C30.9127 29.5814 27.7999 31.136 23.472 31.136V33.136C28.3601 33.136 32.1593 31.3306 34.6294 27.5466L32.9546 26.4534ZM76.6369 38.904L76.3621 37.9424L76.3511 37.9457L76.6369 38.904ZM83.5969 35.4L84.2216 36.1809L83.5969 35.4ZM88.0129 29.736L88.9186 30.1599L88.0129 29.736ZM88.0129 14.712L88.9186 14.2881L88.0129 14.712ZM83.5969 9L82.9722 9.78087V9.78087L83.5969 9ZM76.6369 5.496L76.9274 4.53912L76.9173 4.53606L76.9071 4.53321L76.6369 5.496ZM58.6849 5.496L58.4101 4.53441L58.3991 4.53771L58.6849 5.496ZM51.7249 9L52.3496 9.78087L52.3496 9.78087L51.7249 9ZM47.3089 14.712L48.2146 15.1359L48.2183 15.128L48.2219 15.1199L47.3089 14.712ZM47.3089 29.736L48.2219 29.3281L48.2183 29.32L48.2146 29.3121L47.3089 29.736ZM51.7249 35.4L51.1002 36.1809L51.7249 35.4ZM58.6849 38.904L58.9754 37.9471L58.9653 37.9441L58.9551 37.9412L58.6849 38.904ZM58.9249 14.904L59.5496 15.6849L59.5581 15.678L58.9249 14.904ZM76.3969 14.904L75.7636 15.678L76.3969 14.904ZM76.3969 29.544L75.7636 28.77L76.3969 29.544ZM67.6609 41.104C71.0031 41.104 74.0777 40.7108 76.9227 39.8623L76.3511 37.9457C73.724 38.7292 70.8466 39.104 67.6609 39.104V41.104ZM76.9116 39.8655C79.7154 39.0644 82.1889 37.807 84.2216 36.1809L82.9722 34.6191C81.1648 36.065 78.9344 37.2076 76.3622 37.9425L76.9116 39.8655ZM84.2216 36.1809C86.268 34.5437 87.8012 32.547 88.9186 30.1599L87.1072 29.3121C86.1125 31.437 84.7657 33.1843 82.9722 34.6191L84.2216 36.1809ZM88.9186 30.1599C90.0431 27.7575 90.5969 25.1145 90.5969 22.2H88.5969C88.5969 24.8535 88.0946 27.2025 87.1072 29.3121L88.9186 30.1599ZM90.5969 22.2C90.5969 19.3321 90.0426 16.6894 88.9186 14.2881L87.1072 15.1359C88.0952 17.2466 88.5969 19.5959 88.5969 22.2H90.5969ZM88.9186 14.2881C87.8049 11.9089 86.2743 9.86133 84.2216 8.21913L82.9722 9.78087C84.7594 11.2107 86.1088 13.0031 87.1072 15.1359L88.9186 14.2881ZM84.2216 8.21913C82.1812 6.58686 79.708 5.38325 76.9274 4.53912L76.3464 6.45288C78.9417 7.24074 81.1725 8.34114 82.9722 9.78087L84.2216 8.21913ZM76.9071 4.53321C74.0817 3.74011 71.0147 3.296 67.6609 3.296V5.296C70.835 5.296 73.72 5.71588 76.3666 6.45879L76.9071 4.53321ZM67.6609 3.296C64.3094 3.296 61.1926 3.7395 58.4102 4.53448L58.9596 6.45752C61.5532 5.7165 64.4844 5.296 67.6609 5.296V3.296ZM58.3991 4.53771C55.5622 5.38378 53.1375 6.58927 51.1002 8.21913L52.3496 9.78087C54.1522 8.33873 56.3355 7.24021 58.9707 6.45429L58.3991 4.53771ZM51.1002 8.21913C49.056 9.85443 47.469 11.9022 46.3959 14.3041L48.2219 15.1199C49.1647 13.0098 50.5537 11.2176 52.3496 9.78087L51.1002 8.21913ZM46.4032 14.2881C45.2742 16.7 44.7729 19.3455 44.7729 22.2H46.7729C46.7729 19.5825 47.2316 17.236 48.2146 15.1359L46.4032 14.2881ZM44.7729 22.2C44.7729 25.1011 45.2737 27.747 46.4032 30.1599L48.2146 29.3121C47.232 27.213 46.7729 24.8669 46.7729 22.2H44.7729ZM46.3959 30.1439C47.4724 32.5534 49.0627 34.5509 51.1002 36.1809L52.3496 34.6191C50.547 33.1771 49.1613 31.4306 48.2219 29.3281L46.3959 30.1439ZM51.1002 36.1809C53.1295 37.8043 55.5552 39.0642 58.4146 39.8668L58.9551 37.9412C56.3425 37.2078 54.1602 36.0677 52.3496 34.6191L51.1002 36.1809ZM58.3944 39.8609C61.1962 40.7114 64.3214 41.104 67.6609 41.104V39.104C64.4724 39.104 61.5495 38.7286 58.9754 37.9471L58.3944 39.8609ZM67.6609 31.136C64.0624 31.136 61.387 30.3057 59.5101 28.77L58.2436 30.318C60.5907 32.2383 63.7714 33.136 67.6609 33.136V31.136ZM59.5101 28.77C57.669 27.2637 56.7089 25.122 56.7089 22.2H54.7089C54.7089 25.614 55.8607 28.3683 58.2436 30.318L59.5101 28.77ZM56.7089 22.2C56.7089 19.3304 57.6656 17.1921 59.5496 15.6849L58.3002 14.1231C55.8642 16.0719 54.7089 18.8296 54.7089 22.2H56.7089ZM59.5581 15.678C61.4431 14.1357 64.1244 13.264 67.6609 13.264V11.264C63.8053 11.264 60.6306 12.2163 58.2916 14.13L59.5581 15.678ZM67.6609 13.264C71.1973 13.264 73.8786 14.1357 75.7636 15.678L77.0301 14.13C74.6911 12.2163 71.5164 11.264 67.6609 11.264V13.264ZM75.7636 15.678C77.6155 17.1931 78.6129 19.3417 78.6129 22.2H80.6129C80.6129 18.8183 79.4023 16.0709 77.0301 14.13L75.7636 15.678ZM78.6129 22.2C78.6129 25.1091 77.6135 27.2565 75.7636 28.77L77.0301 30.318C79.4042 28.3755 80.6129 25.6269 80.6129 22.2H78.6129ZM75.7636 28.77C73.8857 30.3065 71.2095 31.136 67.6609 31.136V33.136C71.5042 33.136 74.684 32.2375 77.0301 30.318L75.7636 28.77ZM132.56 5.4V4.4H132.075L131.775 4.78073L132.56 5.4ZM119.84 21.528L119.053 22.1444L119.837 23.1466L120.625 22.1473L119.84 21.528ZM107.216 5.4L108.004 4.78363L107.703 4.4H107.216V5.4ZM96.5122 5.4V4.4H95.5122V5.4H96.5122ZM96.5122 39H95.5122V40H96.5122V39ZM105.968 39V40H106.968V39H105.968ZM105.968 17.544L106.743 16.9119L104.968 14.7362V17.544H105.968ZM119.36 33.96L118.585 34.5921L118.885 34.96H119.36V33.96ZM119.84 33.96V34.96H120.315L120.615 34.5921L119.84 33.96ZM133.232 17.544H134.232V14.7362L132.457 16.9119L133.232 17.544ZM133.232 39H132.232V40H133.232V39ZM142.976 39V40H143.976V39H142.976ZM142.976 5.4H143.976V4.4H142.976V5.4ZM131.775 4.78073L119.055 20.9087L120.625 22.1473L133.345 6.01926L131.775 4.78073ZM120.628 20.9116L108.004 4.78363L106.429 6.01637L119.053 22.1444L120.628 20.9116ZM107.216 4.4H96.5122V6.4H107.216V4.4ZM95.5122 5.4V39H97.5122V5.4H95.5122ZM96.5122 40H105.968V38H96.5122V40ZM106.968 39V17.544H104.968V39H106.968ZM105.193 18.1761L118.585 34.5921L120.135 33.3279L106.743 16.9119L105.193 18.1761ZM119.36 34.96H119.84V32.96H119.36V34.96ZM120.615 34.5921L134.007 18.1761L132.457 16.9119L119.065 33.3279L120.615 34.5921ZM132.232 17.544V39H134.232V17.544H132.232ZM133.232 40H142.976V38H133.232V40ZM143.976 39V5.4H141.976V39H143.976ZM142.976 4.4H132.56V6.4H142.976V4.4ZM161.592 39V40H162.592V39H161.592ZM161.592 5.4H162.592V4.4H161.592V5.4ZM151.8 5.4V4.4H150.8V5.4H151.8ZM151.8 39H150.8V40H151.8V39ZM162.592 39V5.4H160.592V39H162.592ZM161.592 4.4H151.8V6.4H161.592V4.4ZM150.8 5.4V39H152.8V5.4H150.8ZM151.8 40H161.592V38H151.8V40ZM200.767 5.4V4.4H199.767V5.4H200.767ZM200.767 25.944L200.049 26.6401L201.767 28.4119V25.944H200.767ZM180.847 5.4L181.565 4.70388L181.27 4.4H180.847V5.4ZM170.479 5.4V4.4H169.479V5.4H170.479ZM170.479 39H169.479V40H170.479V39ZM179.935 39V40H180.935V39H179.935ZM179.935 16.92L180.648 16.2191L178.935 14.4755V16.92H179.935ZM201.631 39L200.918 39.7009L201.212 40H201.631V39ZM210.223 39V40H211.223V39H210.223ZM210.223 5.4H211.223V4.4H210.223V5.4ZM199.767 5.4V25.944H201.767V5.4H199.767ZM201.485 25.2479L181.565 4.70388L180.129 6.09612L200.049 26.6401L201.485 25.2479ZM180.847 4.4H170.479V6.4H180.847V4.4ZM169.479 5.4V39H171.479V5.4H169.479ZM170.479 40H179.935V38H170.479V40ZM180.935 39V16.92H178.935V39H180.935ZM179.222 17.6209L200.918 39.7009L202.344 38.2991L180.648 16.2191L179.222 17.6209ZM201.631 40H210.223V38H201.631V40ZM211.223 39V5.4H209.223V39H211.223ZM210.223 4.4H200.767V6.4H210.223V4.4ZM258.664 19.56H259.664V18.56H258.664V19.56ZM238.456 19.56V18.56H237.456V19.56H238.456ZM238.456 26.424H237.456V27.424H238.456V26.424ZM249.592 26.424H250.592V25.424H249.592V26.424ZM249.592 29.448L250.266 30.1865L250.592 29.8891V29.448H249.592ZM230.392 29.784L231.019 29.0047L231.008 28.9965L230.392 29.784ZM230.344 14.664L229.719 13.8831L229.717 13.8848L230.344 14.664ZM245.464 12.936L245.821 12.0019L245.809 11.9973L245.797 11.993L245.464 12.936ZM250.12 15.768L249.465 16.5237L250.07 17.0479L250.714 16.5725L250.12 15.768ZM257.272 10.488L257.866 11.2925L258.843 10.5713L257.948 9.75084L257.272 10.488ZM252.856 7.416L253.35 6.54631L253.341 6.54121L253.332 6.53629L252.856 7.416ZM246.664 5.112L246.902 4.1407L246.893 4.1384L246.883 4.13628L246.664 5.112ZM230.2 5.496L229.934 4.53201L229.927 4.53413L229.919 4.53637L230.2 5.496ZM223.144 9L223.759 9.78837L223.769 9.78087L223.144 9ZM218.68 14.664L219.586 15.088L219.59 15.0793L218.68 14.664ZM218.68 29.736L219.593 29.3281L219.588 29.3162L219.582 29.3045L218.68 29.736ZM223.144 35.4L223.769 34.6191L223.759 34.6117L223.144 35.4ZM230.2 38.904L230.481 37.9444L230.474 37.9421L230.466 37.94L230.2 38.904ZM250.936 38.136L251.312 39.0626L251.317 39.0607L250.936 38.136ZM258.664 32.664L259.44 33.2946L259.664 33.019V32.664H258.664ZM258.664 18.56H238.456V20.56H258.664V18.56ZM237.456 19.56V26.424H239.456V19.56H237.456ZM238.456 27.424H249.592V25.424H238.456V27.424ZM248.592 26.424V29.448H250.592V26.424H248.592ZM248.918 28.7095C246.966 30.4919 244.036 31.424 239.848 31.424V33.424C244.3 33.424 247.803 32.4361 250.266 30.1865L248.918 28.7095ZM239.848 31.424C235.891 31.424 232.982 30.5835 231.019 29.0048L229.765 30.5632C232.219 32.5364 235.645 33.424 239.848 33.424V31.424ZM231.008 28.9965C229.09 27.4949 228.08 25.2698 228.08 22.2H226.08C226.08 25.7542 227.278 28.6171 229.776 30.5715L231.008 28.9965ZM228.08 22.2C228.08 19.1771 229.043 16.9938 230.971 15.4432L229.717 13.8848C227.229 15.8862 226.08 18.6949 226.08 22.2H228.08ZM230.969 15.4449C232.891 13.9072 235.759 13.024 239.704 13.024V11.024C235.489 11.024 232.117 11.9648 229.719 13.8831L230.969 15.4449ZM239.704 13.024C241.811 13.024 243.617 13.3445 245.131 13.879L245.797 11.993C244.047 11.3755 242.014 11.024 239.704 11.024V13.024ZM245.107 13.87C246.622 14.4494 248.107 15.3463 249.465 16.5237L250.775 15.0123C249.254 13.6937 247.57 12.6706 245.821 12.0019L245.107 13.87ZM250.714 16.5725L257.866 11.2925L256.678 9.68349L249.526 14.9635L250.714 16.5725ZM257.948 9.75084C256.719 8.62421 255.16 7.5736 253.35 6.54631L252.363 8.28568C254.105 9.2744 255.521 10.2398 256.596 11.2252L257.948 9.75084ZM253.332 6.53629C251.468 5.52865 249.321 4.73309 246.902 4.1407L246.426 6.0833C248.711 6.64291 250.693 7.38334 252.381 8.2957L253.332 6.53629ZM246.883 4.13628C244.465 3.59337 241.991 3.296 239.464 3.296V5.296C241.833 5.296 244.16 5.57463 246.445 6.08771L246.883 4.13628ZM239.464 3.296C235.97 3.296 232.809 3.73903 229.934 4.53201L230.466 6.45999C233.16 5.71697 236.142 5.296 239.464 5.296V3.296ZM229.919 4.53637C227.038 5.38083 224.562 6.58534 222.519 8.21913L223.769 9.78087C225.567 8.34266 227.794 7.24317 230.481 6.45563L229.919 4.53637ZM222.529 8.21168C220.431 9.84887 218.844 11.898 217.77 14.2487L219.59 15.0793C220.533 13.014 221.921 11.2231 223.759 9.78832L222.529 8.21168ZM217.774 14.2401C216.645 16.653 216.144 19.2989 216.144 22.2H218.144C218.144 19.5331 218.603 17.187 219.586 15.0879L217.774 14.2401ZM216.144 22.2C216.144 25.0963 216.643 27.7949 217.778 30.1675L219.582 29.3045C218.605 27.2611 218.144 24.8717 218.144 22.2H216.144ZM217.767 30.1439C218.844 32.5546 220.437 34.5555 222.529 36.1883L223.759 34.6117C221.915 33.1725 220.532 31.4294 219.593 29.3281L217.767 30.1439ZM222.519 36.1809C224.554 37.8085 227.031 39.067 229.934 39.868L230.466 37.94C227.802 37.205 225.574 36.0635 223.769 34.6191L222.519 36.1809ZM229.919 39.8636C232.812 40.7117 235.982 41.104 239.464 41.104V39.104C236.13 39.104 233.156 38.7283 230.481 37.9444L229.919 39.8636ZM239.464 41.104C243.877 41.104 247.851 40.4671 251.312 39.0626L250.56 37.2094C247.397 38.4929 243.691 39.104 239.464 39.104V41.104ZM251.317 39.0607C254.703 37.6664 257.443 35.7526 259.44 33.2946L257.888 32.0334C256.141 34.1834 253.697 35.9176 250.555 37.2113L251.317 39.0607ZM259.664 32.664V19.56H257.664V32.664H259.664ZM297.583 17.688L297.667 16.6914L297.662 16.6911L297.583 17.688ZM290.576 16.92L290.807 15.9471L290.797 15.9449L290.576 16.92ZM288.367 16.008L289.032 15.2606L288.988 15.222L288.941 15.1888L288.367 16.008ZM296.384 11.64L296.401 10.6401L296.392 10.64H296.384V11.64ZM309.871 15.384L309.301 16.2054L310.064 16.7348L310.648 16.0139L309.871 15.384ZM314.815 9.288L315.592 9.9179L316.274 9.07719L315.382 8.46396L314.815 9.288ZM306.608 5.592L306.871 4.62723L306.867 4.62624L306.608 5.592ZM288.608 5.16L288.824 6.13619L288.828 6.13531L288.608 5.16ZM282.272 7.752L281.695 6.93502L281.69 6.93827L282.272 7.752ZM278.863 11.544L279.771 11.9651L279.777 11.9516L279.783 11.9379L278.863 11.544ZM282.464 22.536L282.96 21.6678L282.464 22.536ZM297.008 25.992L296.921 26.9883L296.927 26.9887L297.008 25.992ZM304.448 27.144L304.131 28.0927L304.448 27.144ZM288.896 31.368L289.207 30.4177L288.896 31.368ZM281.743 27.48L282.393 26.7194L281.63 26.0685L280.981 26.8327L281.743 27.48ZM276.608 33.528L275.845 32.8807L275.179 33.6656L275.983 34.3089L276.608 33.528ZM283.328 37.416L283.711 36.4924L283.705 36.4899L283.328 37.416ZM290.96 39.576L291.112 38.5876L291.109 38.5872L290.96 39.576ZM305.695 39.288L305.933 40.2593L305.695 39.288ZM311.599 36.888L311.051 36.0519L311.045 36.056L311.599 36.888ZM315.151 33.192L316.022 33.685L316.028 33.6739L316.034 33.6626L315.151 33.192ZM312.176 21.144L311.648 21.9936V21.9936L312.176 21.144ZM297.662 16.6911C293.98 16.4004 291.721 16.1648 290.807 15.9472L290.344 17.8928C291.446 18.1552 293.891 18.3996 297.505 18.6849L297.662 16.6911ZM290.797 15.9449C289.771 15.7116 289.264 15.4671 289.032 15.2606L287.703 16.7554C288.335 17.3169 289.268 17.6484 290.354 17.8951L290.797 15.9449ZM288.941 15.1888C288.82 15.1041 288.774 15.0369 288.751 14.9885C288.725 14.935 288.695 14.8408 288.695 14.664H286.695C286.695 15.0632 286.762 15.473 286.952 15.8635C287.145 16.2591 287.435 16.5759 287.794 16.8272L288.941 15.1888ZM288.695 14.664C288.695 14.3985 288.862 13.9046 290.325 13.4017L289.674 11.5103C288.065 12.0634 286.695 13.0095 286.695 14.664H288.695ZM290.325 13.4017C291.715 12.9239 293.704 12.64 296.384 12.64V10.64C293.591 10.64 291.356 10.9321 289.674 11.5103L290.325 13.4017ZM296.366 12.6398C301.75 12.7335 306.052 13.9491 309.301 16.2054L310.442 14.5626C306.779 12.0189 302.057 10.7385 296.401 10.6401L296.366 12.6398ZM310.648 16.0139L315.592 9.9179L314.039 8.6581L309.095 14.7541L310.648 16.0139ZM315.382 8.46396C312.975 6.80894 310.134 5.51713 306.871 4.62723L306.344 6.55676C309.417 7.39487 312.048 8.59905 314.249 10.112L315.382 8.46396ZM306.867 4.62624C303.56 3.73775 300.064 3.296 296.384 3.296V5.296C299.903 5.296 303.223 5.71824 306.348 6.55775L306.867 4.62624ZM296.384 3.296C293.67 3.296 291.004 3.59208 288.387 4.18468L288.828 6.13531C291.299 5.57592 293.817 5.296 296.384 5.296V3.296ZM288.391 4.18381C285.71 4.77959 283.464 5.686 281.695 6.93503L282.848 8.56897C284.343 7.514 286.321 6.69241 288.824 6.13618L288.391 4.18381ZM281.69 6.93827C279.933 8.19343 278.621 9.57202 277.944 11.1501L279.783 11.9379C280.258 10.828 281.25 9.71057 282.853 8.56573L281.69 6.93827ZM277.956 11.1229C277.277 12.586 276.952 14.025 276.952 15.432H278.952C278.952 14.343 279.202 13.19 279.771 11.9651L277.956 11.1229ZM276.952 15.432C276.952 18.8738 278.687 21.5295 281.967 23.4042L282.96 21.6678C280.192 20.0865 278.952 18.0382 278.952 15.432H276.952ZM281.967 23.4042C285.186 25.2437 290.214 26.4092 296.921 26.9883L297.094 24.9957C290.457 24.4228 285.789 23.2843 282.96 21.6678L281.967 23.4042ZM296.927 26.9887C300.474 27.2764 302.816 27.6542 304.131 28.0927L304.764 26.1953C303.199 25.6738 300.645 25.2836 297.088 24.9953L296.927 26.9887ZM304.131 28.0927C304.759 28.3018 305.131 28.5429 305.338 28.7639C305.524 28.962 305.608 29.1732 305.608 29.448H307.608C307.608 28.6668 307.331 27.966 306.797 27.3961C306.284 26.8491 305.576 26.4662 304.764 26.1953L304.131 28.0927ZM305.608 29.448C305.608 29.7599 305.514 30.0045 305.316 30.2292C305.101 30.4746 304.723 30.7368 304.096 30.9717C302.829 31.4469 300.816 31.712 297.967 31.712V33.712C300.879 33.712 303.186 33.4491 304.799 32.8443C305.612 32.5392 306.314 32.1234 306.819 31.5498C307.341 30.9555 307.608 30.2401 307.608 29.448H305.608ZM297.967 31.712C294.792 31.712 291.875 31.2917 289.207 30.4177L288.584 32.3183C291.484 33.2683 294.615 33.712 297.967 33.712V31.712ZM289.207 30.4177C286.528 29.54 284.247 28.3025 282.393 26.7194L281.094 28.2406C283.176 30.0175 285.695 31.372 288.584 32.3183L289.207 30.4177ZM280.981 26.8327L275.845 32.8807L277.37 34.1753L282.506 28.1273L280.981 26.8327ZM275.983 34.3089C277.983 35.9088 280.275 37.2523 282.95 38.3421L283.705 36.4899C281.196 35.4677 279.072 34.2192 277.232 32.7471L275.983 34.3089ZM282.944 38.3396C285.558 39.4246 288.18 40.1678 290.81 40.5648L291.109 38.5872C288.651 38.2162 286.185 37.5194 283.711 36.4924L282.944 38.3396ZM290.807 40.5644C293.357 40.9567 295.712 41.104 297.776 41.104V39.104C295.807 39.104 293.554 38.9633 291.112 38.5876L290.807 40.5644ZM297.776 41.104C300.754 41.104 303.479 40.8603 305.933 40.2593L305.458 38.3167C303.208 38.8677 300.653 39.104 297.776 39.104V41.104ZM305.933 40.2593C308.353 39.6667 310.441 38.862 312.154 37.7201L311.045 36.056C309.59 37.026 307.742 37.7573 305.458 38.3167L305.933 40.2593ZM312.148 37.724C313.802 36.6388 315.119 35.2781 316.022 33.685L314.281 32.699C313.552 33.9859 312.469 35.1212 311.051 36.052L312.148 37.724ZM316.034 33.6626C316.872 32.0912 317.352 30.3947 317.352 28.488H315.352C315.352 30.0373 314.967 31.4128 314.269 32.7214L316.034 33.6626ZM317.352 28.488C317.352 24.9599 315.768 22.1972 312.703 20.2944L311.648 21.9936C314.151 23.5468 315.352 25.6801 315.352 28.488H317.352ZM312.703 20.2944C309.701 18.4314 304.596 17.2689 297.667 16.6915L297.5 18.6845C304.395 19.2591 309.082 20.4006 311.648 21.9936L312.703 20.2944ZM351.763 38.904L351.488 37.9424L351.477 37.9457L351.763 38.904ZM358.723 35.4L359.348 36.1809L358.723 35.4ZM363.139 29.736L364.045 30.1599L363.139 29.736ZM363.139 14.712L364.045 14.2881L363.139 14.712ZM358.723 9L358.098 9.78087V9.78087L358.723 9ZM351.763 5.496L352.054 4.53912L352.044 4.53606L352.033 4.53321L351.763 5.496ZM333.811 5.496L333.536 4.53441L333.525 4.53771L333.811 5.496ZM326.851 9L327.476 9.78087V9.78087L326.851 9ZM322.435 14.712L323.341 15.1359L323.345 15.128L323.348 15.1199L322.435 14.712ZM322.435 29.736L323.348 29.3281L323.345 29.32L323.341 29.3121L322.435 29.736ZM326.851 35.4L326.226 36.1809L326.851 35.4ZM333.811 38.904L334.102 37.9471L334.092 37.9441L334.081 37.9412L333.811 38.904ZM334.051 14.904L334.676 15.6849L334.684 15.678L334.051 14.904ZM351.523 14.904L350.89 15.678L351.523 14.904ZM351.523 29.544L350.89 28.77L351.523 29.544ZM342.787 41.104C346.129 41.104 349.204 40.7108 352.049 39.8623L351.477 37.9457C348.85 38.7292 345.973 39.104 342.787 39.104V41.104ZM352.038 39.8655C354.842 39.0644 357.315 37.807 359.348 36.1809L358.098 34.6191C356.291 36.065 354.061 37.2076 351.488 37.9425L352.038 39.8655ZM359.348 36.1809C361.394 34.5437 362.927 32.547 364.045 30.1599L362.233 29.3121C361.239 31.437 359.892 33.1843 358.098 34.6191L359.348 36.1809ZM364.045 30.1599C365.169 27.7575 365.723 25.1145 365.723 22.2H363.723C363.723 24.8535 363.221 27.2025 362.233 29.3121L364.045 30.1599ZM365.723 22.2C365.723 19.3321 365.169 16.6894 364.045 14.2881L362.233 15.1359C363.221 17.2466 363.723 19.5959 363.723 22.2H365.723ZM364.045 14.2881C362.931 11.9089 361.401 9.86133 359.348 8.21913L358.098 9.78087C359.886 11.2107 361.235 13.0031 362.233 15.1359L364.045 14.2881ZM359.348 8.21913C357.307 6.58686 354.834 5.38325 352.054 4.53912L351.473 6.45288C354.068 7.24074 356.299 8.34114 358.098 9.78087L359.348 8.21913ZM352.033 4.53321C349.208 3.74011 346.141 3.296 342.787 3.296V5.296C345.961 5.296 348.846 5.71588 351.493 6.45879L352.033 4.53321ZM342.787 3.296C339.436 3.296 336.319 3.7395 333.536 4.53448L334.086 6.45752C336.679 5.7165 339.611 5.296 342.787 5.296V3.296ZM333.525 4.53771C330.688 5.38378 328.264 6.58927 326.226 8.21913L327.476 9.78087C329.278 8.33873 331.462 7.24021 334.097 6.45429L333.525 4.53771ZM326.226 8.21913C324.182 9.85443 322.595 11.9022 321.522 14.3041L323.348 15.1199C324.291 13.0098 325.68 11.2176 327.476 9.78087L326.226 8.21913ZM321.529 14.2881C320.4 16.7 319.899 19.3455 319.899 22.2H321.899C321.899 19.5825 322.358 17.236 323.341 15.1359L321.529 14.2881ZM319.899 22.2C319.899 25.1011 320.4 27.747 321.529 30.1599L323.341 29.3121C322.358 27.213 321.899 24.8669 321.899 22.2H319.899ZM321.522 30.1439C322.599 32.5534 324.189 34.5509 326.226 36.1809L327.476 34.6191C325.673 33.1771 324.288 31.4306 323.348 29.3281L321.522 30.1439ZM326.226 36.1809C328.256 37.8043 330.681 39.0642 333.541 39.8668L334.081 37.9412C331.469 37.2078 329.286 36.0677 327.476 34.6191L326.226 36.1809ZM333.521 39.8609C336.322 40.7114 339.448 41.104 342.787 41.104V39.104C339.599 39.104 336.676 38.7286 334.102 37.9471L333.521 39.8609ZM342.787 31.136C339.189 31.136 336.513 30.3057 334.636 28.77L333.37 30.318C335.717 32.2383 338.898 33.136 342.787 33.136V31.136ZM334.636 28.77C332.795 27.2637 331.835 25.122 331.835 22.2H329.835C329.835 25.614 330.987 28.3683 333.37 30.318L334.636 28.77ZM331.835 22.2C331.835 19.3304 332.792 17.1921 334.676 15.6849L333.426 14.1231C330.99 16.0719 329.835 18.8296 329.835 22.2H331.835ZM334.684 15.678C336.569 14.1357 339.251 13.264 342.787 13.264V11.264C338.932 11.264 335.757 12.2163 333.418 14.13L334.684 15.678ZM342.787 13.264C346.324 13.264 349.005 14.1357 350.89 15.678L352.156 14.13C349.817 12.2163 346.643 11.264 342.787 11.264V13.264ZM350.89 15.678C352.742 17.1931 353.739 19.3417 353.739 22.2H355.739C355.739 18.8183 354.529 16.0709 352.156 14.13L350.89 15.678ZM353.739 22.2C353.739 25.1091 352.74 27.2565 350.89 28.77L352.156 30.318C354.53 28.3755 355.739 25.6269 355.739 22.2H353.739ZM350.89 28.77C349.012 30.3065 346.336 31.136 342.787 31.136V33.136C346.63 33.136 349.81 32.2375 352.156 30.318L350.89 28.77ZM400.583 38.904L400.308 37.9424L400.297 37.9457L400.583 38.904ZM407.543 35.4L408.167 36.1809L407.543 35.4ZM411.959 29.736L412.864 30.1599L411.959 29.736ZM411.959 14.712L412.864 14.2881L411.959 14.712ZM407.543 9L406.918 9.78087V9.78087L407.543 9ZM400.583 5.496L400.873 4.53912L400.863 4.53606L400.853 4.53321L400.583 5.496ZM382.631 5.496L382.356 4.53441L382.345 4.53771L382.631 5.496ZM375.671 9L376.295 9.78087V9.78087L375.671 9ZM371.255 14.712L372.16 15.1359L372.164 15.128L372.168 15.1199L371.255 14.712ZM371.255 29.736L372.168 29.3281L372.164 29.32L372.16 29.3121L371.255 29.736ZM375.671 35.4L375.046 36.1809L375.671 35.4ZM382.631 38.904L382.921 37.9471L382.911 37.9441L382.901 37.9412L382.631 38.904ZM382.871 14.904L383.495 15.6849L383.504 15.678L382.871 14.904ZM400.343 14.904L399.709 15.678L400.343 14.904ZM400.343 29.544L399.709 28.77L400.343 29.544ZM391.607 41.104C394.949 41.104 398.023 40.7108 400.868 39.8623L400.297 37.9457C397.67 38.7292 394.792 39.104 391.607 39.104V41.104ZM400.857 39.8655C403.661 39.0644 406.135 37.807 408.167 36.1809L406.918 34.6191C405.11 36.065 402.88 37.2076 400.308 37.9425L400.857 39.8655ZM408.167 36.1809C410.214 34.5437 411.747 32.547 412.864 30.1599L411.053 29.3121C410.058 31.437 408.711 33.1843 406.918 34.6191L408.167 36.1809ZM412.864 30.1599C413.989 27.7575 414.543 25.1145 414.543 22.2H412.543C412.543 24.8535 412.04 27.2025 411.053 29.3121L412.864 30.1599ZM414.543 22.2C414.543 19.3321 413.988 16.6894 412.864 14.2881L411.053 15.1359C412.041 17.2466 412.543 19.5959 412.543 22.2H414.543ZM412.864 14.2881C411.751 11.9089 410.22 9.86133 408.167 8.21913L406.918 9.78087C408.705 11.2107 410.054 13.0031 411.053 15.1359L412.864 14.2881ZM408.167 8.21913C406.127 6.58686 403.654 5.38325 400.873 4.53912L400.292 6.45288C402.887 7.24074 405.118 8.34114 406.918 9.78087L408.167 8.21913ZM400.853 4.53321C398.027 3.74011 394.96 3.296 391.607 3.296V5.296C394.781 5.296 397.666 5.71588 400.312 6.45879L400.853 4.53321ZM391.607 3.296C388.255 3.296 385.138 3.7395 382.356 4.53448L382.905 6.45752C385.499 5.7165 388.43 5.296 391.607 5.296V3.296ZM382.345 4.53771C379.508 5.38378 377.083 6.58927 375.046 8.21913L376.295 9.78087C378.098 8.33873 380.281 7.24021 382.916 6.45429L382.345 4.53771ZM375.046 8.21913C373.002 9.85443 371.415 11.9022 370.341 14.3041L372.168 15.1199C373.11 13.0098 374.499 11.2176 376.295 9.78087L375.046 8.21913ZM370.349 14.2881C369.22 16.7 368.719 19.3455 368.719 22.2H370.719C370.719 19.5825 371.177 17.236 372.16 15.1359L370.349 14.2881ZM368.719 22.2C368.719 25.1011 369.219 27.747 370.349 30.1599L372.16 29.3121C371.178 27.213 370.719 24.8669 370.719 22.2H368.719ZM370.341 30.1439C371.418 32.5534 373.008 34.5509 375.046 36.1809L376.295 34.6191C374.493 33.1771 373.107 31.4306 372.168 29.3281L370.341 30.1439ZM375.046 36.1809C377.075 37.8043 379.501 39.0642 382.36 39.8668L382.901 37.9412C380.288 37.2078 378.106 36.0677 376.295 34.6191L375.046 36.1809ZM382.34 39.8609C385.142 40.7114 388.267 41.104 391.607 41.104V39.104C388.418 39.104 385.495 38.7286 382.921 37.9471L382.34 39.8609ZM391.607 31.136C388.008 31.136 385.333 30.3057 383.456 28.77L382.189 30.318C384.536 32.2383 387.717 33.136 391.607 33.136V31.136ZM383.456 28.77C381.615 27.2637 380.655 25.122 380.655 22.2H378.655C378.655 25.614 379.806 28.3683 382.189 30.318L383.456 28.77ZM380.655 22.2C380.655 19.3304 381.611 17.1921 383.495 15.6849L382.246 14.1231C379.81 16.0719 378.655 18.8296 378.655 22.2H380.655ZM383.504 15.678C385.389 14.1357 388.07 13.264 391.607 13.264V11.264C387.751 11.264 384.576 12.2163 382.237 14.13L383.504 15.678ZM391.607 13.264C395.143 13.264 397.824 14.1357 399.709 15.678L400.976 14.13C398.637 12.2163 395.462 11.264 391.607 11.264V13.264ZM399.709 15.678C401.561 17.1931 402.559 19.3417 402.559 22.2H404.559C404.559 18.8183 403.348 16.0709 400.976 14.13L399.709 15.678ZM402.559 22.2C402.559 25.1091 401.559 27.2565 399.709 28.77L400.976 30.318C403.35 28.3755 404.559 25.6269 404.559 22.2H402.559ZM399.709 28.77C397.831 30.3065 395.155 31.136 391.607 31.136V33.136C395.45 33.136 398.63 32.2375 400.976 30.318L399.709 28.77ZM450.746 5.4V4.4H449.746V5.4H450.746ZM450.746 25.944L450.028 26.6401L451.746 28.4119V25.944H450.746ZM430.826 5.4L431.544 4.70388L431.249 4.4H430.826V5.4ZM420.458 5.4V4.4H419.458V5.4H420.458ZM420.458 39H419.458V40H420.458V39ZM429.914 39V40H430.914V39H429.914ZM429.914 16.92L430.627 16.2191L428.914 14.4755V16.92H429.914ZM451.61 39L450.897 39.7009L451.191 40H451.61V39ZM460.202 39V40H461.202V39H460.202ZM460.202 5.4H461.202V4.4H460.202V5.4ZM449.746 5.4V25.944H451.746V5.4H449.746ZM451.464 25.2479L431.544 4.70388L430.108 6.09612L450.028 26.6401L451.464 25.2479ZM430.826 4.4H420.458V6.4H430.826V4.4ZM419.458 5.4V39H421.458V5.4H419.458ZM420.458 40H429.914V38H420.458V40ZM430.914 39V16.92H428.914V39H430.914ZM429.201 17.6209L450.897 39.7009L452.323 38.2991L430.627 16.2191L429.201 17.6209ZM451.61 40H460.202V38H451.61V40ZM461.202 39V5.4H459.202V39H461.202ZM460.202 4.4H450.746V6.4H460.202V4.4Z" fill="white"/>
</svg>
