<?xml version="1.0" standalone="no"?>
<!DOCTYPE svg PUBLIC "-//W3C//DTD SVG 20010904//EN"
 "http://www.w3.org/TR/2001/REC-SVG-20010904/DTD/svg10.dtd">
<svg version="1.0" xmlns="http://www.w3.org/2000/svg"
 width="700.000000pt" height="700.000000pt" viewBox="0 0 700.000000 700.000000"
 preserveAspectRatio="xMidYMid meet">
<metadata>
Created by potrace 1.14, written by Peter Selinger 2001-2017
</metadata>
<g transform="translate(0.000000,700.000000) scale(0.100000,-0.100000)"
fill="#000000" stroke="none">
<path d="M3798 6347 l-1456 -452 -784 -885 c-431 -487 -895 -1011 -1031 -1165
l-248 -280 55 -3 c118 -6 3370 137 3380 149 2 2 -158 263 -356 579 -206 331
-353 577 -347 579 7 2 343 87 748 190 l736 186 228 445 c125 245 304 595 398
778 132 258 166 332 152 331 -10 0 -673 -204 -1475 -452z"/>
<path d="M5734 6407 c-28 -50 -233 -414 -455 -807 -387 -686 -417 -744 -746
-1419 -189 -387 -343 -708 -343 -713 0 -4 6 -8 13 -8 6 0 298 9 647 19 349 11
636 18 637 17 1 -1 -99 -330 -223 -731 -186 -602 -224 -734 -216 -755 9 -24
886 -1457 901 -1472 4 -5 177 665 384 1486 l377 1495 -457 1490 c-252 820
-460 1491 -463 1491 -3 0 -28 -42 -56 -93z"/>
<path d="M1102 3076 c-441 -11 -801 -23 -800 -26 2 -4 499 -490 1106 -1081
l1103 -1074 1511 -348 c831 -191 1513 -346 1515 -343 3 3 -123 220 -280 483
-156 263 -371 625 -477 806 -106 180 -198 327 -204 327 -6 0 -193 288 -415
640 -222 352 -407 640 -410 640 -3 -1 -152 -253 -331 -560 -179 -308 -328
-560 -332 -560 -4 0 -240 252 -524 560 l-518 560 -70 -2 c-39 0 -432 -10 -874
-22z"/>
</g>
</svg>
